<?xml version="1.0" encoding="UTF-8"?>
<svg id="Layer_1" xmlns="http://www.w3.org/2000/svg" version="1.1" viewBox="0 0 1920 1080">
  <!-- Generator: Adobe Illustrator 29.1.0, SVG Export Plug-In . SVG Version: 2.1.0 Build 142)  -->
  <defs>
    <style>
      .st0 {
        fill: #f0f;
      }

      .st1 {
        fill: lime;
      }

      .st2 {
        fill: blue;
      }

      .st3 {
        fill: #231f20;
        font-family: ArialMT, Arial;
        font-size: 18.2px;
        stroke: #060607;
        stroke-width: .4px;
      }

      .st3, .st4, .st5 {
        stroke-miterlimit: 10;
      }

      .st6 {
        fill: red;
      }

      .st7 {
        fill: #b3b3b3;
      }

      .st4 {
        stroke: #2e3191;
        stroke-width: 1.6px;
      }

      .st4, .st5 {
        fill: none;
      }

      .st8 {
        fill: aqua;
      }

      .st9 {
        fill: #fbb03b;
      }

      .st5 {
        stroke: #000;
        stroke-dasharray: .8;
        stroke-width: .5px;
      }
    </style>
  </defs>
  <rect class="st7" x="46.2" y="127.1" width="19.9" height="2.8"/>
  <rect class="st7" x="46.2" y="122.7" width="20" height="2.8"/>
  <rect class="st6" x="34" y="122.7" width="12.2" height="2.8"/>
  <rect class="st6" x="34" y="127.1" width="12.2" height="2.8"/>
  <rect class="st2" x="66.2" y="127.1" width="1.7" height="2.8"/>
  <rect class="st2" x="66.2" y="122.7" width="12.2" height="2.8"/>
  <rect class="st7" x="254.2" y="122.7" width="19.9" height="2.8"/>
  <rect class="st7" x="254.1" y="127.1" width="20" height="2.8"/>
  <rect class="st9" x="274.1" y="127.1" width="12.2" height="2.8"/>
  <rect class="st9" x="274.1" y="122.7" width="12.2" height="2.8"/>
  <rect class="st0" x="252.5" y="122.7" width="1.7" height="2.8"/>
  <rect class="st0" x="241.9" y="127.1" width="12.2" height="2.8"/>
  <rect class="st7" x="97.8" y="127.1" width="19.9" height="2.8"/>
  <rect class="st7" x="97.8" y="122.7" width="20" height="2.8"/>
  <rect class="st2" x="96.1" y="122.7" width="1.7" height="2.8"/>
  <rect class="st2" x="85.6" y="127.1" width="12.2" height="2.8"/>
  <rect class="st1" x="117.8" y="127.1" width="1.7" height="2.8"/>
  <rect class="st1" x="117.8" y="122.7" width="12.2" height="2.8"/>
  <rect class="st7" x="150" y="127.1" width="19.9" height="2.8"/>
  <rect class="st7" x="149.9" y="122.7" width="20" height="2.8"/>
  <rect class="st1" x="148.3" y="122.7" width="1.7" height="2.8"/>
  <rect class="st1" x="137.7" y="127.1" width="12.2" height="2.8"/>
  <rect class="st8" x="169.9" y="127.1" width="1.7" height="2.8"/>
  <rect class="st8" x="169.9" y="122.7" width="12.2" height="2.8"/>
  <rect class="st7" x="202.2" y="127.1" width="19.9" height="2.8"/>
  <rect class="st7" x="202.2" y="122.7" width="20" height="2.8"/>
  <rect class="st8" x="200.6" y="122.7" width="1.7" height="2.8"/>
  <rect class="st8" x="190" y="127.1" width="12.2" height="2.8"/>
  <rect class="st0" x="222.2" y="127.1" width="1.7" height="2.8"/>
  <rect class="st0" x="222.2" y="122.7" width="13.2" height="2.8"/>
  <path class="st5" d="M72.4,127.5c-.1,12.9,18.6-14.3,18.6-2"/>
  <path class="st5" d="M124,127.5c-.1,12.9,18.6-14.3,18.6-2"/>
  <path class="st5" d="M175.7,127.5c-.1,12.9,18.6-14.3,18.6-2"/>
  <path class="st5" d="M229.4,127.5c-.1,12.9,18.6-14.3,18.6-2"/>
  <path class="st4" d="M124.9,110.4h-9.3l-16.1-28.2-15.1-25.1h-3.2v41.4l11.5-12.9,7.5,6.7-16.2,18.2h-12.8v-63.4h18.9l18.1,30.1,13.3,23.2h3.5c2.8,0,5.2-2.3,5.2-5.2v-35.9l-13.2,16.1-7.8-6.3,18.1-22.1h12.9v48.2c0,8.4-6.8,15.2-15.2,15.2Z"/>
  <text class="st3" transform="translate(143.8 63.4)"><tspan x="0" y="0">Methods </tspan><tspan x="0" y="21.8">Development </tspan><tspan x="0" y="43.7">Lab</tspan></text>
</svg>